# Blender v2.93.1 OBJ File: 'arrow.blend'
# www.blender.org
mtllib arrow.mtl
o Plane
v -1.324497 -0.021696 -0.754893
v -1.273507 -0.021696 -0.832505
v -1.892451 -0.021696 -0.972348
v -1.770248 -0.021696 -1.178115
v -1.170660 -0.021696 -0.974909
v -1.667402 -0.021696 -1.320519
v -1.090089 -0.021696 -1.062911
v -1.595663 -0.021696 -1.410177
v -0.972267 -0.021696 -1.172348
v -1.478547 -0.021696 -1.535127
v -0.816931 -0.021696 -1.286806
v -1.324992 -0.021696 -1.666771
v -0.601746 -0.021696 -1.400580
v -1.112283 -0.021696 -1.816501
v -0.405105 -0.021696 -1.472977
v -0.762233 -0.021696 -1.990095
v -0.202141 -0.021696 -1.511026
v -0.435076 -0.021696 -2.092153
v -0.024177 -0.021696 -1.527166
v -0.023029 -0.021696 -2.134121
v 0.218091 -0.021696 -1.513813
v 0.404279 -0.021696 -2.103599
v 0.533485 -0.021696 -1.434805
v 0.843987 -0.021696 -1.963389
v 0.794194 -0.021696 -1.306836
v 1.156837 -0.021696 -1.794564
v 0.999264 -0.021696 -1.157087
v 1.361907 -0.021696 -1.644815
v 1.115629 -0.021696 -1.045491
v 1.525301 -0.021696 -1.502088
v 1.253932 -0.021696 -0.872851
v 1.702683 -0.021696 -1.289705
v 1.394142 -0.021696 -0.611506
v 1.899858 -0.021696 -0.959474
v 1.471401 -0.021696 -0.405483
v 2.058698 -0.021696 -0.560370
v 1.489121 -0.021696 -0.315820
v 2.103020 -0.021696 -0.312339
v 1.122234 -0.021696 -0.313285
v 2.385595 -0.021696 -0.309549
v 1.069355 -0.021696 -0.250998
v 2.425815 -0.021696 -0.243627
v 1.064718 -0.021696 -0.202248
v 2.427412 -0.021696 -0.186524
v 1.662131 -0.021696 0.417508
v 1.833040 -0.021696 0.418436
v 1.714989 -0.021696 0.446224
v 1.780182 -0.021696 0.446578
v -0.503502 -0.021696 -1.440880
v -0.948850 -0.021696 -1.908266
v -1.032834 -0.021696 -1.118458
v -1.534345 -0.021696 -1.472652
v -0.896439 -0.021696 -1.229577
v -1.404644 -0.021696 -1.599799
v -0.712558 -0.021696 -1.345073
v -1.223429 -0.021696 -1.743553
v -0.303623 -0.021696 -1.492002
v -0.601874 -0.021696 -2.047104
v -0.113159 -0.021696 -1.519096
v -0.231437 -0.021696 -2.125854
v 0.096957 -0.021696 -1.520490
v 0.191420 -0.021696 -2.126809
v 0.377378 -0.021696 -1.474707
v 0.628107 -0.021696 -2.046211
v 0.663839 -0.021696 -1.370820
v 1.002002 -0.021696 -1.883745
v 1.324037 -0.021696 -0.742178
v 1.810427 -0.021696 -1.129168
v 1.432771 -0.021696 -0.508494
v 1.981928 -0.021696 -0.771845
v -1.324497 -0.066256 -0.754893
v -1.273507 -0.066256 -0.832505
v -1.892451 -0.066256 -0.972348
v -1.770248 -0.066256 -1.178115
v -1.170660 -0.066256 -0.974909
v -1.667402 -0.066256 -1.320519
v -1.090089 -0.066256 -1.062911
v -1.595663 -0.066256 -1.410177
v -0.972267 -0.066256 -1.172348
v -1.478547 -0.066256 -1.535127
v -0.816931 -0.066256 -1.286806
v -1.324992 -0.066256 -1.666771
v -0.601746 -0.066256 -1.400580
v -1.112283 -0.066256 -1.816501
v -0.405105 -0.066256 -1.472977
v -0.762233 -0.066256 -1.990095
v -0.202141 -0.066256 -1.511026
v -0.435076 -0.066256 -2.092153
v -0.024177 -0.066256 -1.527166
v -0.023029 -0.066256 -2.134121
v 0.218091 -0.066256 -1.513813
v 0.404279 -0.066256 -2.103599
v 0.533485 -0.066256 -1.434805
v 0.843987 -0.066256 -1.963389
v 0.794194 -0.066256 -1.306836
v 1.156837 -0.066256 -1.794564
v 0.999264 -0.066256 -1.157087
v 1.361907 -0.066256 -1.644815
v 1.115629 -0.066256 -1.045491
v 1.525301 -0.066256 -1.502088
v 1.253932 -0.066256 -0.872851
v 1.702683 -0.066256 -1.289705
v 1.394142 -0.066256 -0.611506
v 1.899858 -0.066256 -0.959474
v 1.471401 -0.066256 -0.405483
v 2.058698 -0.066256 -0.560370
v 1.489121 -0.066256 -0.315820
v 2.103020 -0.066256 -0.312339
v 1.122234 -0.066256 -0.313285
v 2.385595 -0.066256 -0.309549
v 1.069355 -0.066256 -0.250998
v 2.425815 -0.066256 -0.243627
v 1.064718 -0.066256 -0.202248
v 2.427412 -0.066256 -0.186524
v 1.662131 -0.066256 0.417508
v 1.833040 -0.066256 0.418436
v 1.714989 -0.066256 0.446224
v 1.780182 -0.066256 0.446578
v -0.503502 -0.066256 -1.440880
v -0.948850 -0.066256 -1.908266
v -1.032834 -0.066256 -1.118458
v -1.534345 -0.066256 -1.472652
v -0.896439 -0.066256 -1.229577
v -1.404644 -0.066256 -1.599799
v -0.712558 -0.066256 -1.345073
v -1.223429 -0.066256 -1.743553
v -0.303623 -0.066256 -1.492002
v -0.601874 -0.066256 -2.047104
v -0.113159 -0.066256 -1.519096
v -0.231437 -0.066256 -2.125854
v 0.096957 -0.066256 -1.520490
v 0.191420 -0.066256 -2.126809
v 0.377378 -0.066256 -1.474707
v 0.628107 -0.066256 -2.046211
v 0.663839 -0.066256 -1.370820
v 1.002002 -0.066256 -1.883745
v 1.324037 -0.066256 -0.742178
v 1.810427 -0.066256 -1.129168
v 1.432771 -0.066256 -0.508494
v 1.981928 -0.066256 -0.771845
v -1.032834 -0.043976 -1.118458
v -1.090089 -0.043976 -1.062911
v 1.394142 -0.043976 -0.611506
v 1.324037 -0.043976 -0.742178
v -1.112283 -0.043976 -1.816501
v -0.948850 -0.043976 -1.908266
v 1.432771 -0.043976 -0.508494
v -1.534345 -0.043976 -1.472652
v -1.478547 -0.043976 -1.535127
v 1.702683 -0.043976 -1.289705
v 1.810427 -0.043976 -1.129168
v 1.981928 -0.043976 -0.771845
v 2.058698 -0.043976 -0.560370
v -0.202141 -0.043976 -1.511026
v -0.303623 -0.043976 -1.492002
v -0.896439 -0.043976 -1.229577
v -0.972267 -0.043976 -1.172348
v 1.471401 -0.043976 -0.405483
v -0.762233 -0.043976 -1.990095
v -0.601874 -0.043976 -2.047104
v -1.404644 -0.043976 -1.599799
v -1.324992 -0.043976 -1.666771
v 1.899858 -0.043976 -0.959474
v -0.024177 -0.043976 -1.527166
v -0.113159 -0.043976 -1.519096
v -1.324497 -0.043976 -0.754893
v -1.892451 -0.043976 -0.972348
v -0.712558 -0.043976 -1.345073
v -0.816931 -0.043976 -1.286806
v 1.489121 -0.043976 -0.315820
v -0.435076 -0.043976 -2.092153
v -0.231437 -0.043976 -2.125854
v -1.273507 -0.043976 -0.832505
v -1.223429 -0.043976 -1.743553
v 2.103020 -0.043976 -0.312339
v 0.218091 -0.043976 -1.513813
v 0.096957 -0.043976 -1.520490
v -1.770248 -0.043976 -1.178115
v -0.405105 -0.043976 -1.472977
v 1.122234 -0.043976 -0.313285
v -0.023029 -0.043976 -2.134121
v 0.191420 -0.043976 -2.126809
v 2.385595 -0.043976 -0.309549
v -1.170660 -0.043976 -0.974909
v 0.533485 -0.043976 -1.434805
v 0.377378 -0.043976 -1.474707
v -1.667402 -0.043976 -1.320519
v 1.069355 -0.043976 -0.250998
v 0.404279 -0.043976 -2.103599
v 0.628107 -0.043976 -2.046211
v 2.425815 -0.043976 -0.243627
v 0.794194 -0.043976 -1.306836
v 0.663839 -0.043976 -1.370820
v -1.595663 -0.043976 -1.410177
v 1.064718 -0.043976 -0.202248
v 0.843987 -0.043976 -1.963389
v 1.002002 -0.043976 -1.883745
v 2.427412 -0.043976 -0.186524
v 0.999264 -0.043976 -1.157087
v 1.662131 -0.043976 0.417508
v 1.156837 -0.043976 -1.794564
v 1.361907 -0.043976 -1.644815
v 1.833040 -0.043976 0.418436
v 1.780182 -0.043976 0.446578
v 1.714989 -0.043976 0.446224
v 1.115629 -0.043976 -1.045491
v 1.525301 -0.043976 -1.502088
v -0.601746 -0.043976 -1.400580
v -0.503502 -0.043976 -1.440880
v 1.253932 -0.043976 -0.872851
vt 0.000000 0.000000
vt 0.000000 1.000000
vt 1.000000 1.000000
vt 1.000000 0.000000
vt 1.000000 1.000000
vt 1.000000 0.000000
vt 1.000000 1.000000
vt 1.000000 0.000000
vt 1.000000 1.000000
vt 1.000000 1.000000
vt 1.000000 0.000000
vt 1.000000 0.000000
vt 1.000000 1.000000
vt 1.000000 1.000000
vt 1.000000 0.000000
vt 1.000000 0.000000
vt 1.000000 1.000000
vt 1.000000 1.000000
vt 1.000000 0.000000
vt 1.000000 0.000000
vt 1.000000 1.000000
vt 1.000000 1.000000
vt 1.000000 0.000000
vt 1.000000 0.000000
vt 1.000000 1.000000
vt 1.000000 1.000000
vt 1.000000 0.000000
vt 1.000000 0.000000
vt 1.000000 1.000000
vt 1.000000 1.000000
vt 1.000000 0.000000
vt 1.000000 0.000000
vt 1.000000 1.000000
vt 1.000000 1.000000
vt 1.000000 0.000000
vt 1.000000 0.000000
vt 1.000000 1.000000
vt 1.000000 1.000000
vt 1.000000 0.000000
vt 1.000000 0.000000
vt 1.000000 1.000000
vt 1.000000 1.000000
vt 1.000000 0.000000
vt 1.000000 0.000000
vt 1.000000 1.000000
vt 1.000000 0.000000
vt 1.000000 1.000000
vt 1.000000 0.000000
vt 1.000000 1.000000
vt 1.000000 0.000000
vt 1.000000 1.000000
vt 1.000000 1.000000
vt 1.000000 0.000000
vt 1.000000 0.000000
vt 1.000000 1.000000
vt 1.000000 1.000000
vt 1.000000 0.000000
vt 1.000000 0.000000
vt 1.000000 1.000000
vt 1.000000 0.000000
vt 1.000000 1.000000
vt 1.000000 0.000000
vt 1.000000 1.000000
vt 1.000000 0.000000
vt 1.000000 1.000000
vt 1.000000 0.000000
vt 1.000000 1.000000
vt 1.000000 0.000000
vt 1.000000 1.000000
vt 1.000000 0.000000
vt 0.000000 0.000000
vt 1.000000 0.000000
vt 1.000000 1.000000
vt 0.000000 1.000000
vt 1.000000 0.000000
vt 1.000000 1.000000
vt 1.000000 0.000000
vt 1.000000 1.000000
vt 1.000000 1.000000
vt 1.000000 0.000000
vt 1.000000 0.000000
vt 1.000000 1.000000
vt 1.000000 1.000000
vt 1.000000 0.000000
vt 1.000000 0.000000
vt 1.000000 1.000000
vt 1.000000 1.000000
vt 1.000000 0.000000
vt 1.000000 0.000000
vt 1.000000 1.000000
vt 1.000000 1.000000
vt 1.000000 0.000000
vt 1.000000 0.000000
vt 1.000000 1.000000
vt 1.000000 1.000000
vt 1.000000 0.000000
vt 1.000000 0.000000
vt 1.000000 1.000000
vt 1.000000 1.000000
vt 1.000000 0.000000
vt 1.000000 0.000000
vt 1.000000 1.000000
vt 1.000000 1.000000
vt 1.000000 0.000000
vt 1.000000 0.000000
vt 1.000000 1.000000
vt 1.000000 1.000000
vt 1.000000 0.000000
vt 1.000000 0.000000
vt 1.000000 1.000000
vt 1.000000 1.000000
vt 1.000000 0.000000
vt 1.000000 0.000000
vt 1.000000 1.000000
vt 1.000000 0.000000
vt 1.000000 1.000000
vt 1.000000 0.000000
vt 1.000000 1.000000
vt 1.000000 0.000000
vt 1.000000 1.000000
vt 1.000000 1.000000
vt 1.000000 0.000000
vt 1.000000 0.000000
vt 1.000000 1.000000
vt 1.000000 1.000000
vt 1.000000 0.000000
vt 1.000000 0.000000
vt 1.000000 1.000000
vt 1.000000 0.000000
vt 1.000000 1.000000
vt 1.000000 0.000000
vt 1.000000 1.000000
vt 1.000000 0.000000
vt 1.000000 1.000000
vt 1.000000 0.000000
vt 1.000000 1.000000
vt 1.000000 0.000000
vt 1.000000 1.000000
vt 1.000000 0.000000
vt 1.000000 1.000000
vt 1.000000 0.000000
vt 1.000000 0.000000
vt 1.000000 0.000000
vt 1.000000 0.000000
vt 1.000000 1.000000
vt 1.000000 1.000000
vt 1.000000 0.000000
vt 1.000000 1.000000
vt 1.000000 1.000000
vt 1.000000 1.000000
vt 1.000000 1.000000
vt 1.000000 1.000000
vt 1.000000 1.000000
vt 1.000000 0.000000
vt 1.000000 0.000000
vt 1.000000 0.000000
vt 1.000000 0.000000
vt 1.000000 0.000000
vt 1.000000 1.000000
vt 1.000000 1.000000
vt 1.000000 1.000000
vt 1.000000 1.000000
vt 1.000000 1.000000
vt 1.000000 0.000000
vt 1.000000 0.000000
vt 0.000000 1.000000
vt 0.000000 0.000000
vt 1.000000 0.000000
vt 1.000000 0.000000
vt 1.000000 0.000000
vt 1.000000 1.000000
vt 1.000000 1.000000
vt 1.000000 0.000000
vt 1.000000 1.000000
vt 1.000000 1.000000
vt 1.000000 0.000000
vt 1.000000 0.000000
vt 1.000000 1.000000
vt 1.000000 0.000000
vt 1.000000 0.000000
vt 1.000000 1.000000
vt 1.000000 1.000000
vt 1.000000 1.000000
vt 1.000000 0.000000
vt 1.000000 0.000000
vt 1.000000 0.000000
vt 1.000000 1.000000
vt 1.000000 0.000000
vt 1.000000 1.000000
vt 1.000000 1.000000
vt 1.000000 1.000000
vt 1.000000 0.000000
vt 1.000000 0.000000
vt 1.000000 1.000000
vt 1.000000 0.000000
vt 1.000000 1.000000
vt 1.000000 1.000000
vt 1.000000 1.000000
vt 1.000000 0.000000
vt 1.000000 0.000000
vt 1.000000 1.000000
vt 1.000000 1.000000
vt 1.000000 1.000000
vt 1.000000 0.000000
vt 1.000000 1.000000
vt 1.000000 0.000000
vt 1.000000 1.000000
vt 1.000000 0.000000
vt 1.000000 0.000000
vt 1.000000 0.000000
vn 0.0000 -1.0000 0.0000
vn 0.0000 1.0000 0.0000
vn -0.6963 0.0000 -0.7177
vn 0.8812 0.0000 -0.4728
vn 0.4896 0.0000 0.8720
vn 0.9363 0.0000 -0.3511
vn 0.7458 0.0000 0.6661
vn -0.8303 0.0000 0.5573
vn -0.9400 0.0000 0.3412
vn -0.1843 0.0000 -0.9829
vn -0.6024 0.0000 -0.7982
vn 0.3350 0.0000 0.9422
vn 0.6436 0.0000 0.7654
vn -0.9162 0.0000 0.4007
vn -0.0903 0.0000 -0.9959
vn 0.3576 0.0000 -0.9339
vn -0.4874 0.0000 -0.8732
vn 0.9810 0.0000 -0.1939
vn 0.1633 0.0000 0.9866
vn -0.8358 0.0000 -0.5491
vn 0.5487 0.0000 0.8360
vn -0.9844 0.0000 0.1759
vn 0.0550 0.0000 -0.9985
vn 0.8598 0.0000 0.5106
vn 0.0069 0.0000 1.0000
vn -0.0341 0.0000 0.9994
vn 0.2607 0.0000 0.9654
vn -0.0099 0.0000 1.0000
vn -0.8107 0.0000 -0.5855
vn 0.2476 0.0000 -0.9689
vn 0.8107 0.0000 0.5855
vn 0.7623 0.0000 0.6472
vn -0.2484 0.0000 0.9687
vn 0.0396 0.0000 0.9992
vn -0.8537 0.0000 0.5208
vn -0.7376 0.0000 -0.6753
vn 0.4406 0.0000 -0.8977
vn 0.7808 0.0000 0.6248
vn 0.9955 0.0000 0.0947
vn -0.4501 0.0000 0.8930
vn -0.1084 0.0000 0.9941
vn -0.9996 0.0000 0.0280
vn -0.6647 0.0000 -0.7471
vn 0.5897 0.0000 -0.8076
vn 0.7137 0.0000 0.7005
vn 0.2384 0.0000 -0.9712
vn 0.7200 0.0000 -0.6940
vn -0.5897 0.0000 0.8076
vn -0.3582 0.0000 0.9336
vn -0.7133 0.0000 -0.7008
vn -0.5842 0.0000 -0.8116
vn 0.0054 0.0000 -1.0000
vn 0.6922 0.0000 -0.7217
vn 0.6585 0.0000 0.7525
vn 0.4774 0.0000 -0.8787
vn -0.6579 0.0000 0.7531
vn -0.4991 0.0000 0.8665
vn -0.4700 0.0000 -0.8827
vn -0.4479 0.0000 -0.8941
vn -0.3795 0.0000 -0.9252
vn 0.7804 0.0000 -0.6252
vn 0.6031 0.0000 0.7977
vn 0.4016 0.0000 0.9158
vn -0.7675 0.0000 0.6410
vn -0.8847 0.0000 0.4662
vn -0.3101 0.0000 -0.9507
usemtl None
s off
f 1/1/1 3/2/1 4/3/1 2/4/1
f 4/3/1 6/5/1 5/6/1 2/4/1
f 6/5/1 8/7/1 7/8/1 5/6/1
f 52/9/1 10/10/1 9/11/1 51/12/1
f 54/13/1 12/14/1 11/15/1 53/16/1
f 56/17/1 14/18/1 13/19/1 55/20/1
f 50/21/1 16/22/1 15/23/1 49/24/1
f 58/25/1 18/26/1 17/27/1 57/28/1
f 60/29/1 20/30/1 19/31/1 59/32/1
f 62/33/1 22/34/1 21/35/1 61/36/1
f 64/37/1 24/38/1 23/39/1 63/40/1
f 66/41/1 26/42/1 25/43/1 65/44/1
f 26/42/1 28/45/1 27/46/1 25/43/1
f 28/45/1 30/47/1 29/48/1 27/46/1
f 30/47/1 32/49/1 31/50/1 29/48/1
f 68/51/1 34/52/1 33/53/1 67/54/1
f 70/55/1 36/56/1 35/57/1 69/58/1
f 36/56/1 38/59/1 37/60/1 35/57/1
f 38/59/1 40/61/1 39/62/1 37/60/1
f 40/61/1 42/63/1 41/64/1 39/62/1
f 42/63/1 44/65/1 43/66/1 41/64/1
f 44/65/1 46/67/1 45/68/1 43/66/1
f 46/67/1 48/69/1 47/70/1 45/68/1
f 14/18/1 50/21/1 49/24/1 13/19/1
f 8/7/1 52/9/1 51/12/1 7/8/1
f 10/10/1 54/13/1 53/16/1 9/11/1
f 12/14/1 56/17/1 55/20/1 11/15/1
f 16/22/1 58/25/1 57/28/1 15/23/1
f 18/26/1 60/29/1 59/32/1 17/27/1
f 20/30/1 62/33/1 61/36/1 19/31/1
f 22/34/1 64/37/1 63/40/1 21/35/1
f 24/38/1 66/41/1 65/44/1 23/39/1
f 32/49/1 68/51/1 67/54/1 31/50/1
f 34/52/1 70/55/1 69/58/1 33/53/1
f 71/71/2 72/72/2 74/73/2 73/74/2
f 74/73/2 72/72/2 75/75/2 76/76/2
f 76/76/2 75/75/2 77/77/2 78/78/2
f 122/79/2 121/80/2 79/81/2 80/82/2
f 124/83/2 123/84/2 81/85/2 82/86/2
f 126/87/2 125/88/2 83/89/2 84/90/2
f 120/91/2 119/92/2 85/93/2 86/94/2
f 128/95/2 127/96/2 87/97/2 88/98/2
f 130/99/2 129/100/2 89/101/2 90/102/2
f 132/103/2 131/104/2 91/105/2 92/106/2
f 134/107/2 133/108/2 93/109/2 94/110/2
f 136/111/2 135/112/2 95/113/2 96/114/2
f 96/114/2 95/113/2 97/115/2 98/116/2
f 98/116/2 97/115/2 99/117/2 100/118/2
f 100/118/2 99/117/2 101/119/2 102/120/2
f 138/121/2 137/122/2 103/123/2 104/124/2
f 140/125/2 139/126/2 105/127/2 106/128/2
f 106/128/2 105/127/2 107/129/2 108/130/2
f 108/130/2 107/129/2 109/131/2 110/132/2
f 110/132/2 109/131/2 111/133/2 112/134/2
f 112/134/2 111/133/2 113/135/2 114/136/2
f 114/136/2 113/135/2 115/137/2 116/138/2
f 116/138/2 115/137/2 117/139/2 118/140/2
f 84/90/2 83/89/2 119/92/2 120/91/2
f 78/78/2 77/77/2 121/80/2 122/79/2
f 80/82/2 79/81/2 123/84/2 124/83/2
f 82/86/2 81/85/2 125/88/2 126/87/2
f 86/94/2 85/93/2 127/96/2 128/95/2
f 88/98/2 87/97/2 129/100/2 130/99/2
f 90/102/2 89/101/2 131/104/2 132/103/2
f 92/106/2 91/105/2 133/108/2 134/107/2
f 94/110/2 93/109/2 135/112/2 136/111/2
f 102/120/2 101/119/2 137/122/2 138/121/2
f 104/124/2 103/123/2 139/126/2 140/125/2
f 142/141/3 141/142/3 121/80/3 77/77/3
f 144/143/4 143/144/4 103/123/4 137/122/4
f 146/145/5 145/146/5 84/90/5 120/91/5
f 143/144/6 147/147/6 139/126/6 103/123/6
f 149/148/7 148/149/7 122/79/7 80/82/7
f 151/150/8 150/151/8 102/120/8 138/121/8
f 153/152/9 152/153/9 140/125/9 106/128/9
f 155/154/10 154/155/10 87/97/10 127/96/10
f 157/156/11 156/157/11 123/84/11 79/81/11
f 147/147/6 158/158/6 105/127/6 139/126/6
f 160/159/12 159/160/12 86/94/12 128/95/12
f 162/161/13 161/162/13 124/83/13 82/86/13
f 152/153/14 163/163/14 104/124/14 140/125/14
f 165/164/15 164/165/15 89/101/15 129/100/15
f 167/166/16 166/167/16 71/71/16 73/74/16
f 169/168/17 168/169/17 125/88/17 81/85/17
f 158/158/18 170/170/18 107/129/18 105/127/18
f 172/171/19 171/172/19 88/98/19 130/99/19
f 166/167/20 173/173/20 72/72/20 71/71/20
f 145/146/21 174/174/21 126/87/21 84/90/21
f 175/175/22 153/152/22 106/128/22 108/130/22
f 177/176/23 176/177/23 91/105/23 131/104/23
f 178/178/24 167/166/24 73/74/24 74/73/24
f 179/179/10 155/154/10 127/96/10 85/93/10
f 170/170/25 180/180/25 109/131/25 107/129/25
f 182/181/26 181/182/26 90/102/26 132/103/26
f 171/172/27 160/159/27 128/95/27 88/98/27
f 183/183/28 175/175/28 108/130/28 110/132/28
f 173/173/29 184/184/29 75/75/29 72/72/29
f 186/185/30 185/186/30 93/109/30 133/108/30
f 187/187/31 178/178/31 74/73/31 76/76/31
f 154/155/15 165/164/15 129/100/15 87/97/15
f 180/180/32 188/188/32 111/133/32 109/131/32
f 190/189/33 189/190/33 92/106/33 134/107/33
f 181/182/34 172/171/34 130/99/34 90/102/34
f 191/191/35 183/183/35 110/132/35 112/134/35
f 184/184/36 142/141/36 77/77/36 75/75/36
f 193/192/37 192/193/37 95/113/37 135/112/37
f 194/194/38 187/187/38 76/76/38 78/78/38
f 164/165/23 177/176/23 131/104/23 89/101/23
f 188/188/39 195/195/39 113/135/39 111/133/39
f 197/196/40 196/197/40 94/110/40 136/111/40
f 189/190/41 182/181/41 132/103/41 92/106/41
f 198/198/42 191/191/42 112/134/42 114/136/42
f 141/142/43 157/156/43 79/81/43 121/80/43
f 192/193/44 199/199/44 97/115/44 95/113/44
f 148/149/45 194/194/45 78/78/45 122/79/45
f 176/177/46 186/185/46 133/108/46 91/105/46
f 195/195/47 200/200/47 115/137/47 113/135/47
f 202/201/48 201/202/48 96/114/48 98/116/48
f 196/197/49 190/189/49 134/107/49 94/110/49
f 203/203/50 198/198/50 114/136/50 116/138/50
f 156/157/51 169/168/51 81/85/51 123/84/51
f 205/204/52 204/205/52 118/140/52 117/139/52
f 199/199/53 206/206/53 99/117/53 97/115/53
f 161/162/54 149/148/54 80/82/54 124/83/54
f 185/186/37 193/192/37 135/112/37 93/109/37
f 200/200/55 205/204/55 117/139/55 115/137/55
f 207/207/56 202/201/56 98/116/56 100/118/56
f 201/202/57 197/196/57 136/111/57 96/114/57
f 204/205/58 203/203/58 116/138/58 118/140/58
f 168/169/59 208/208/59 83/89/59 125/88/59
f 208/208/60 209/209/60 119/92/60 83/89/60
f 206/206/61 210/210/61 101/119/61 99/117/61
f 174/174/62 162/161/62 82/86/62 126/87/62
f 210/210/4 144/143/4 137/122/4 101/119/4
f 159/160/63 146/145/63 120/91/63 86/94/63
f 150/151/64 207/207/64 100/118/64 102/120/64
f 163/163/65 151/150/65 138/121/65 104/124/65
f 209/209/66 179/179/66 85/93/66 119/92/66
f 49/24/66 15/23/66 179/179/66 209/209/66
f 34/52/65 68/51/65 151/150/65 163/163/65
f 32/49/64 30/47/64 207/207/64 150/151/64
f 16/22/63 50/21/63 146/145/63 159/160/63
f 31/50/4 67/54/4 144/143/4 210/210/4
f 56/17/62 12/14/62 162/161/62 174/174/62
f 29/48/61 31/50/61 210/210/61 206/206/61
f 13/19/60 49/24/60 209/209/60 208/208/60
f 55/20/59 13/19/59 208/208/59 168/169/59
f 48/69/58 46/67/58 203/203/58 204/205/58
f 26/42/57 66/41/57 197/196/57 201/202/57
f 30/47/56 28/45/56 202/201/56 207/207/56
f 45/68/55 47/70/55 205/204/55 200/200/55
f 23/39/37 65/44/37 193/192/37 185/186/37
f 54/13/54 10/10/54 149/148/54 161/162/54
f 27/46/53 29/48/53 206/206/53 199/199/53
f 47/70/52 48/69/52 204/205/52 205/204/52
f 53/16/51 11/15/51 169/168/51 156/157/51
f 46/67/50 44/65/50 198/198/50 203/203/50
f 24/38/49 64/37/49 190/189/49 196/197/49
f 28/45/48 26/42/48 201/202/48 202/201/48
f 43/66/47 45/68/47 200/200/47 195/195/47
f 21/35/46 63/40/46 186/185/46 176/177/46
f 52/9/45 8/7/45 194/194/45 148/149/45
f 25/43/44 27/46/44 199/199/44 192/193/44
f 51/12/43 9/11/43 157/156/43 141/142/43
f 44/65/42 42/63/42 191/191/42 198/198/42
f 22/34/41 62/33/41 182/181/41 189/190/41
f 66/41/40 24/38/40 196/197/40 197/196/40
f 41/64/39 43/66/39 195/195/39 188/188/39
f 19/31/23 61/36/23 177/176/23 164/165/23
f 8/7/38 6/5/38 187/187/38 194/194/38
f 65/44/37 25/43/37 192/193/37 193/192/37
f 5/6/36 7/8/36 142/141/36 184/184/36
f 42/63/35 40/61/35 183/183/35 191/191/35
f 20/30/34 60/29/34 172/171/34 181/182/34
f 64/37/33 22/34/33 189/190/33 190/189/33
f 39/62/32 41/64/32 188/188/32 180/180/32
f 17/27/15 59/32/15 165/164/15 154/155/15
f 6/5/31 4/3/31 178/178/31 187/187/31
f 63/40/30 23/39/30 185/186/30 186/185/30
f 2/4/29 5/6/29 184/184/29 173/173/29
f 40/61/28 38/59/28 175/175/28 183/183/28
f 18/26/27 58/25/27 160/159/27 171/172/27
f 62/33/26 20/30/26 181/182/26 182/181/26
f 37/60/25 39/62/25 180/180/25 170/170/25
f 15/23/10 57/28/10 155/154/10 179/179/10
f 4/3/24 3/2/24 167/166/24 178/178/24
f 61/36/23 21/35/23 176/177/23 177/176/23
f 38/59/22 36/56/22 153/152/22 175/175/22
f 14/18/21 56/17/21 174/174/21 145/146/21
f 1/1/20 2/4/20 173/173/20 166/167/20
f 60/29/19 18/26/19 171/172/19 172/171/19
f 35/57/18 37/60/18 170/170/18 158/158/18
f 11/15/17 55/20/17 168/169/17 169/168/17
f 3/2/16 1/1/16 166/167/16 167/166/16
f 59/32/15 19/31/15 164/165/15 165/164/15
f 70/55/14 34/52/14 163/163/14 152/153/14
f 12/14/13 54/13/13 161/162/13 162/161/13
f 58/25/12 16/22/12 159/160/12 160/159/12
f 69/58/6 35/57/6 158/158/6 147/147/6
f 9/11/11 53/16/11 156/157/11 157/156/11
f 57/28/10 17/27/10 154/155/10 155/154/10
f 36/56/9 70/55/9 152/153/9 153/152/9
f 68/51/8 32/49/8 150/151/8 151/150/8
f 10/10/7 52/9/7 148/149/7 149/148/7
f 33/53/6 69/58/6 147/147/6 143/144/6
f 50/21/5 14/18/5 145/146/5 146/145/5
f 67/54/4 33/53/4 143/144/4 144/143/4
f 7/8/3 51/12/3 141/142/3 142/141/3
